{"title":"El color de las nubes 1997 [PAZ]","uid":9542609,"size":1175646679,"categoryP":"video","categoryS":"movies","magnet":"?xt=urn:btih:10c311060a5baabbf3b6c24f5811749a1399df91&amp;dn=El+color+de+las+nubes+1997+%5BPAZ%5D&amp;tr=udp%3A%2F%2Ftracker.openbittorrent.com%3A80&amp;tr=udp%3A%2F%2Fopen.demonii.com%3A1337&amp;tr=udp%3A%2F%2Ftracker.coppersurfer.tk%3A6969&amp;tr=udp%3A%2F%2Fexodus.desync.com%3A6969","seeders":1,"leechers":1,"uploader":null,"files":2,"time":1391079507,"description":"The Color of the Clouds 1997\n\nLanguage: Spanish\nSubtitle: English (.srt)\n\nLola's son is trying to take her country house from her but she refuses to leave. Meanwhile a supposed Bosnian refugee being looked after by Lola is actually Bartolome, who has run away from home. A romance develops between Lola's lawyer, Valerio and her niece Clementina, and Colo the local fisherman finds a consignment of drugs and decides to sell them to raise money to save Lola's house. \n\nGeneral\nComplete name                            : El color de las nubes 1997 [PAZ].avi\nFormat                                   : AVI\nFormat/Info                              : Audio Video Interleave\nFile size                                : 1.09 GiB\nDuration                                 : 1h 50mn\nOverall bit rate                         : 1 419 Kbps\n\nVideo\nID                                       : 0\nFormat                                   : MPEG-4 Visual\nFormat settings, BVOP                    : 1\nFormat settings, QPel                    : No\nFormat settings, GMC                     : No warppoints\nFormat settings, Matrix                  : Default (H.263)\nMuxing mode                              : Packed bitstream\nCodec ID                                 : DX50\nCodec ID/Hint                            : DivX 5\nDuration                                 : 1h 50mn\nBit rate                                 : 1 345 Kbps\nWidth                                    : 608 pixels\nHeight                                   : 336 pixels\nDisplay aspect ratio                     : 16:9\nFrame rate                               : 25.000 fps\nColor space                              : YUV\nChroma subsampling                       : 4:2:0\nBit depth                                : 8 bits\nScan type                                : Progressive\nCompression mode                         : Lossy\nBits/(Pixel*Frame)                       : 0.263\nStream size                              : 1.04 GiB (95%)\nTitle                                    : Video\nWriting library                          : DivX 5.2.1 Alpha (UTC 2004-09-08)\n\nAudio\nID                                       : 1\nFormat                                   : MPEG Audio\nFormat version                           : Version 1\nFormat profile                           : Layer 3\nCodec ID                                 : 55\nCodec ID/Hint                            : MP3\nDuration                                 : 1h 50mn\nBit rate mode                            : Constant\nBit rate                                 : 64.0 Kbps\nChannel count                            : 2 channels\nSampling rate                            : 48.0 KHz\nCompression mode                         : Lossy\nStream size                              : 50.6 MiB (5%)\nAlignment                                : Split accross interleaves\nInterleave, duration                     : 40 ms (1.00 video frame)\nInterleave, preload duration             : 500 ms\nTitle                                    : Audio","torrent":{"xt":"urn:btih:10c311060a5baabbf3b6c24f5811749a1399df91","amp;dn":"El+color+de+las+nubes+1997+%5BPAZ%5D","amp;tr":["udp%3A%2F%2Ftracker.openbittorrent.com%3A80","udp%3A%2F%2Fopen.demonii.com%3A1337","udp%3A%2F%2Ftracker.coppersurfer.tk%3A6969","udp%3A%2F%2Fexodus.desync.com%3A6969"],"infoHash":"10c311060a5baabbf3b6c24f5811749a1399df91","infoHashBuffer":{"type":"Buffer","data":[16,195,17,6,10,91,170,187,243,182,194,79,88,17,116,154,19,153,223,145]},"announce":[],"urlList":[]}}